<svg width="57" height="57" viewBox="0 0 57 57" fill="none" xmlns="http://www.w3.org/2000/svg">
<g id="lens">
<g id="lightGroup">
<circle id="bigC" cx="28.5" cy="28.5" r="28.5" fill="white"/>
<g id="smallC" filter="url(#filter0_d_3_360)">
<circle r="4.5" transform="matrix(1 0 0 -1 28.5 28.5)" fill="white"/>
<circle r="3.75" transform="matrix(1 0 0 -1 28.5 28.5)" stroke="black" stroke-width="1.5"/>
</g>
</g>
<g id="darkGroup">
<g id="darks">
<path d="M9.6688 47.145C4.92785 42.357 2 35.7704 2 28.5C2 28.0019 2.01374 27.507 2.04087 27.0156C3.68784 30.3943 6.29211 33.6312 10.4024 35.6921C22.5264 41.771 32.343 34.1524 32.343 34.1524C32.343 34.1524 30.5674 41.6177 23.5244 45.4437C19.0946 47.8502 13.3338 47.6355 9.6688 47.145Z" fill="black"/>
<path d="M35.0742 54.1782C32.972 54.7148 30.7693 55 28.5 55C23.077 55 18.0345 53.3711 13.8351 50.5758C17.611 50.8569 21.7547 50.2311 25.6282 47.6798C36.9547 40.2196 35.2651 27.9089 35.2651 27.9089C35.2651 27.9089 40.8425 33.1792 40.6344 41.1917C40.5015 46.3104 37.3402 51.2662 35.0742 54.1782Z" fill="black"/>
<path d="M54.0189 35.6688C51.964 42.999 46.8356 49.0444 40.1115 52.3273C42.3066 49.1681 43.9008 45.2064 43.6228 40.4877C42.8254 26.9486 31.3191 22.2565 31.3191 22.2565C31.3191 22.2565 38.6721 20.0615 45.507 24.2479C49.9216 26.9519 52.6443 32.2533 54.0189 35.6688Z" fill="black"/>
<path d="M47.1298 9.65376C51.9891 14.4576 55 21.1272 55 28.5C55 29.3085 54.9638 30.1086 54.8929 30.8987C53.3309 27.0661 50.636 23.2258 46 20.9013C34.0335 14.9013 24.3444 22.4211 24.3444 22.4211C24.3444 22.4211 26.0969 15.0526 33.0484 11.2763C37.5879 8.81031 43.5434 9.13296 47.1298 9.65376Z" fill="black"/>
<path d="M21.6676 2.88916C23.8473 2.30914 26.1376 2 28.5 2C33.935 2 38.9878 3.63617 43.1928 6.44282C39.3546 6.11802 35.1195 6.71608 31.1658 9.32019C19.8393 16.7804 21.5289 29.0911 21.5289 29.0911C21.5289 29.0911 15.9515 23.8208 16.1596 15.8083C16.2915 10.7288 19.4055 5.80978 21.6676 2.88916Z" fill="black"/>
<path d="M16.5755 4.82808C14.4359 7.96148 12.8978 11.8707 13.1712 16.5123C13.9686 30.0514 25.4749 34.7435 25.4749 34.7435C25.4749 34.7435 18.1219 36.9385 11.287 32.7521C7.00062 30.1266 4.30933 25.0525 2.89826 21.6335C4.86499 14.282 9.91387 8.19042 16.5755 4.82808Z" fill="black"/>
</g>
</g>
</g>
<defs>
<filter id="filter0_d_3_360" x="22" y="22" width="13" height="13" filterUnits="userSpaceOnUse" color-interpolation-filters="sRGB">
<feFlood flood-opacity="0" result="BackgroundImageFix"/>
<feColorMatrix in="SourceAlpha" type="matrix" values="0 0 0 0 0 0 0 0 0 0 0 0 0 0 0 0 0 0 127 0" result="hardAlpha"/>
<feMorphology radius="2" operator="dilate" in="SourceAlpha" result="effect1_dropShadow_3_360"/>
<feOffset/>
<feComposite in2="hardAlpha" operator="out"/>
<feColorMatrix type="matrix" values="0 0 0 0 1 0 0 0 0 1 0 0 0 0 1 0 0 0 1 0"/>
<feBlend mode="normal" in2="BackgroundImageFix" result="effect1_dropShadow_3_360"/>
<feBlend mode="normal" in="SourceGraphic" in2="effect1_dropShadow_3_360" result="shape"/>
</filter>
</defs>
</svg>
